<svg height="856" viewBox="0 0 24750 8560" width="2475" xmlns="http://www.w3.org/2000/svg">
  <g>
    <path d="m965 8550c-559-41-927-355-957-817l-4-63h102 103l6 58c23 206 113 360 274 466 142 95 313 143 541 153 231 9 380-17 549-99 87-42 116-62 180-126 133-134 181-265 181-493 0-161-23-286-71-386-58-122-189-233-339-289-57-21-10-16 91 10 315 80 446 190 510 431 32 117 32 354 1 477-64 256-212 437-457 560-186 94-447 137-710 118z" />
    <path d="m4190 8523c-2-97 105-2983 110-2983 3 0 25 636 48 1413 24 776 46 1456 49 1510l6 97h-107-106z" />
    <path d="m6730 8448v-111l478 6c262 3 525 2 583-3 423-35 646-230 666-584 22-394-239-744-622-837-44-10-98-19-120-20-23-1 0-7 57-14 137-19 238-49 338-101 257-132 377-372 341-679-22-190-77-311-193-420-117-111-272-179-483-214-60-10-276-36-480-57l-370-39 165-7c91-3 302-8 470-9 325-3 413 5 570 53 201 62 380 205 458 368 66 138 76 190 77 390 0 199-10 251-75 385-77 159-174 252-352 338-59 29-108 54-108 57s24 14 53 24c83 28 186 94 259 164 158 151 228 333 228 588 0 492-303 782-860 824-74 5-348 10-607 10h-473z" />
    <path d="m11630 7888v-672l-452-826c-248-454-464-849-481-877-16-29-27-53-24-53s142 188 310 418c236 324 353 497 527 775 122 197 224 356 225 355 2-2 108-167 237-368 187-291 807-1191 851-1235 5-5-2 10-16 35s-237 433-496 907l-471 862v676 675h-105-105z" />
    <path d="m14993 8443c4-65 25-784 48-1598s44-1487 47-1495c5-15 110 2721 111 2908l1 92h685 685v105 105h-791-792z" />
    <path d="m18804 8453c3-60 24-763 46-1563 23-800 44-1482 48-1515 4-37 28 524 62 1455l55 1515 683 3 682 2v105 105h-791-791z" />
    <path d="m22074 8543c34-93 1332-3203 1337-3203 3 0 282 667 619 1483 337 815 637 1540 666 1610l53 128-115-3-116-3-24-60c-14-33-259-690-546-1460-286-770-524-1406-528-1414-4-7-10-10-13-5s-159 425-347 934c-278 752-594 1579-744 1945l-24 60-112 3c-104 2-112 1-106-15z" />
    <path d="m6735 8283c9-73 94-1100 97-1168 2-33 27 224 56 570 29 347 53 633 52 638 0 4-47 7-105 7h-106z" />
    <path d="m660 6780c-351-94-517-238-575-500-24-108-22-301 4-405 70-275 294-491 596-576 239-67 548-66 775 1 145 43 310 142 398 238 116 128 202 337 202 493v39h-99-100l-6-47c-26-204-104-338-255-438-137-91-308-135-525-135-210 0-388 41-520 121-70 42-176 153-208 217-53 105-62 148-62 302 1 168 14 230 76 357 70 142 204 264 367 334 84 36 66 35-68-1z" />
    <path d="m13725.65955096 1991.21425904c0 1096.03380708-888.51095432 1984.5447614-1984.5447614 1984.5447614s-1984.5447614-888.51095432-1984.5447614-1984.5447614 888.51095432-1984.5447614 1984.5447614-1984.5447614 1984.5447614 888.51095432 1984.5447614 1984.5447614zm-2541.65955096 932.78574096c187-48 304-152 556-492 160-216 166-223 197-220 27 3 69 38 245 208 142 137 201 188 177 155-20-27-102-145-182-261-133-192-147-216-147-254 0-51-25-9 314-530 320-493 343-530 324-510-9 8-171 198-362 423-342 401-348 407-384 407s-41-5-222-231c-192-241-257-308-351-363-132-78-256-105-376-80-268 54-501 297-582 609-51 194-50 364 5 552 117 405 471 669 788 587zm1910-5c38-30 58-73 47-102-11-28-66-77-87-77-45 0-99 71-88 115 7 27 67 85 88 85 7 0 25-9 40-21z" />
    <path d="m11759.13095152 2043.65830541c0 359.37453552-291.3306227 650.70515821-650.70515821 650.70515821-359.37453552 0-650.70515822-291.33062269-650.70515822-650.70515821s291.3306227-650.70515821 650.70515822-650.70515821c359.37453551 0 650.70515821 291.33062269 650.70515821 650.70515821zm-846.13095152 661.34169459" />
  </g>
  <g fill="#fff">
    <path d="m10910 2954c-30-8-87-30-126-50-415-208-588-833-364-1312 113-240 305-403 529-448 184-36 382 23 539 161 29 26 136 151 238 279 103 127 190 232 194 234 5 2 254-286 556-640 301-354 554-650 562-658 24-24-16 39-282 450-137 212-350 540-473 729-123 190-223 351-223 358 0 12 482 717 589 863 39 52-85-59-249-225-74-75-209-208-301-295l-165-159-164 222c-252 339-369 443-556 491-77 20-229 20-304 0zm235-279c70-19 140-56 196-103 31-27 385-478 421-538 9-14-327-445-402-516-61-57-154-104-237-118-245-42-493 164-558 463-21 96-16 310 9 402 82 300 324 474 571 410z" />
    <path d="m13182.38109963 2837.62145183c0 70.88053271-57.46002482 128.34055753-128.34055753 128.34055753s-128.34055754-57.46002482-128.34055754-128.34055753 57.46002483-128.34055754 128.34055754-128.34055754 128.34055753 57.46002483 128.34055753 128.34055754zm-208.38109963 99.37854817" />
  </g>
</svg>